<svg xmlns="http://www.w3.org/2000/svg" width="46" height="46" fill="none" viewBox="0 0 46 46">
  <mask id="a" width="46" height="46" x="0" y="0" maskUnits="userSpaceOnUse" style="mask-type:alpha">
    <path fill="#D9D9D9" d="M22.912.665 45.531 23.3 22.895 45.92.276 23.284z"/>
  </mask>
  <g mask="url(#a)">
    <path fill="#fff" d="M30.703 25.697H12.456c-.376 0-.71-.145-1-.436-.29-.29-.435-.624-.435-1 0-.377.145-.71.435-1 .29-.291.624-.437 1-.437h18.247l-7.79-7.797a1.405 1.405 0 0 1-.437-1.025c0-.394.146-.736.436-1.026a1.4 1.4 0 0 1 1.025-.436 1.4 1.4 0 0 1 1.025.436l10.252 10.259c.29.29.435.632.435 1.026 0 .393-.145.735-.435 1.026L24.962 35.544a1.4 1.4 0 0 1-1.025.436c-.393 0-.734-.145-1.025-.436a1.405 1.405 0 0 1-.436-1.025c0-.394.146-.736.436-1.026l7.791-7.797Z"/>
  </g>
</svg>
