<svg xmlns="http://www.w3.org/2000/svg" width="46" height="46" fill="none" viewBox="0 0 46 46">
  <mask id="a" width="46" height="46" x="0" y="0" maskUnits="userSpaceOnUse" style="mask-type:alpha">
    <path fill="#D9D9D9" d="M0 0h46v46H0z"/>
  </mask>
  <g mask="url(#a)">
    <path fill="url(#b)" d="M9.583 40.25c-.543 0-.998-.184-1.365-.551-.368-.367-.551-.823-.551-1.366v-1.916H5.75V28.75c0-.543.184-.998.551-1.366.367-.367.823-.55 1.366-.55h1.916V13.416c0-2.109.751-3.914 2.252-5.415 1.502-1.501 3.307-2.252 5.415-2.252s3.913.75 5.415 2.252c1.501 1.501 2.252 3.306 2.252 5.415v19.166c0 1.055.375 1.957 1.126 2.708.75.75 1.653 1.126 2.707 1.126 1.054 0 1.957-.376 2.707-1.126.751-.751 1.126-1.653 1.126-2.708V19.167h-1.916c-.543 0-.999-.184-1.366-.551-.367-.368-.551-.823-.551-1.366V9.583h1.917V7.667c0-.543.183-.999.55-1.366.368-.367.823-.551 1.366-.551h3.834c.543 0 .998.184 1.365.551.368.367.551.823.551 1.366v1.916h1.917v7.667c0 .543-.184.998-.551 1.366-.367.367-.823.55-1.366.55h-1.916v13.417c0 2.109-.751 3.913-2.252 5.415-1.502 1.501-3.307 2.252-5.415 2.252s-3.913-.75-5.415-2.252c-1.501-1.502-2.252-3.306-2.252-5.415V13.417c0-1.054-.375-1.957-1.126-2.708-.75-.75-1.653-1.126-2.707-1.126-1.054 0-1.957.376-2.707 1.126-.751.751-1.126 1.654-1.126 2.708v13.416h1.916c.543 0 .999.184 1.366.551.367.368.551.823.551 1.366v7.667h-1.917v1.916c0 .543-.183.999-.55 1.366-.368.367-.823.551-1.366.551H9.583Z"/>
  </g>
  <defs>
    <linearGradient id="b" x1="40.25" x2="5.75" y1="36.078" y2="36.078" gradientUnits="userSpaceOnUse">
      <stop stop-color="#F0B71F"/>
      <stop offset="1" stop-color="#E03609"/>
    </linearGradient>
  </defs>
</svg>
