<svg width="20" height="21" viewBox="0 0 20 21" fill="none" xmlns="http://www.w3.org/2000/svg">
<mask id="mask0_15_223" style="mask-type:alpha" maskUnits="userSpaceOnUse" x="0" y="0" width="20" height="21">
<rect y="0.481445" width="20" height="20" fill="#D9D9D9"/>
</mask>
<g mask="url(#mask0_15_223)">
<path d="M8.33333 13.8146H11.6667C11.9028 13.8146 12.1007 13.7348 12.2604 13.575C12.4201 13.4153 12.5 13.2174 12.5 12.9813V11.3146H10.8333V12.1479H9.16667V8.81462H10.8333V9.64795H12.5V7.98128C12.5 7.74517 12.4201 7.54725 12.2604 7.38753C12.1007 7.22781 11.9028 7.14795 11.6667 7.14795H8.33333C8.09722 7.14795 7.8993 7.22781 7.73958 7.38753C7.57986 7.54725 7.5 7.74517 7.5 7.98128V12.9813C7.5 13.2174 7.57986 13.4153 7.73958 13.575C7.8993 13.7348 8.09722 13.8146 8.33333 13.8146ZM10 18.8146C8.84722 18.8146 7.76389 18.5959 6.75 18.1584C5.73611 17.7209 4.85417 17.1271 4.10417 16.3771C3.35417 15.6271 2.76042 14.7452 2.32292 13.7313C1.88542 12.7174 1.66667 11.6341 1.66667 10.4813C1.66667 9.3285 1.88542 8.24517 2.32292 7.23128C2.76042 6.21739 3.35417 5.33545 4.10417 4.58545C4.85417 3.83545 5.73611 3.2417 6.75 2.8042C7.76389 2.3667 8.84722 2.14795 10 2.14795C11.1528 2.14795 12.2361 2.3667 13.25 2.8042C14.2639 3.2417 15.1458 3.83545 15.8958 4.58545C16.6458 5.33545 17.2396 6.21739 17.6771 7.23128C18.1146 8.24517 18.3333 9.3285 18.3333 10.4813C18.3333 11.6341 18.1146 12.7174 17.6771 13.7313C17.2396 14.7452 16.6458 15.6271 15.8958 16.3771C15.1458 17.1271 14.2639 17.7209 13.25 18.1584C12.2361 18.5959 11.1528 18.8146 10 18.8146ZM10 17.1479C11.8611 17.1479 13.4375 16.5021 14.7292 15.2104C16.0208 13.9188 16.6667 12.3424 16.6667 10.4813C16.6667 8.62017 16.0208 7.04378 14.7292 5.75212C13.4375 4.46045 11.8611 3.81462 10 3.81462C8.13889 3.81462 6.5625 4.46045 5.27083 5.75212C3.97917 7.04378 3.33333 8.62017 3.33333 10.4813C3.33333 12.3424 3.97917 13.9188 5.27083 15.2104C6.5625 16.5021 8.13889 17.1479 10 17.1479Z" fill="white"/>
</g>
</svg>
