<svg
  width="46"
  height="46"
  viewBox="0 0 46 46"
  fill="none"
  xmlns="http://www.w3.org/2000/svg"
>
  <g id="speakers">
    <path
      id="Exclude"
      fill-rule="evenodd"
      clip-rule="evenodd"
      d="M33.0069 1.9165H12.8024C8.79972 1.9165 5.75 5.17484 5.75 9.00817V36.7998C5.75 40.8248 8.79972 44.0832 12.8024 44.0832H33.1976C37.0097 44.0832 40.25 40.8248 40.25 36.9915V9.00817C40.0594 5.17484 37.0097 1.9165 33.0069 1.9165ZM22.9995 35.0757C18.2078 35.0757 14.1828 31.2424 14.1828 26.259C14.1828 21.2757 18.0161 17.4424 22.9995 17.4424C27.7911 17.4424 31.8161 21.2757 31.8161 26.259C31.8161 31.2424 27.7911 35.0757 22.9995 35.0757ZM22.9995 21.4674C20.3161 21.4674 18.0161 23.5757 18.0161 26.4507C18.0161 29.134 20.1245 31.4341 22.9995 31.4341C25.8745 31.4341 27.9828 29.3257 27.9828 26.4507C27.9828 23.7674 25.6828 21.4674 22.9995 21.4674ZM17.824 14.7581H28.174C29.1323 14.7581 29.899 13.9915 29.899 12.8415C29.899 11.6915 29.1323 10.9248 27.9823 10.9248H17.824C16.674 10.9248 15.9073 11.6915 15.9073 12.8415C15.9073 13.9915 16.674 14.7581 17.824 14.7581Z"
      fill="url(#paint0_linear_162_2)"></path>
  </g>
  <defs>
    <linearGradient
      id="paint0_linear_162_2"
      x1="40.25"
      y1="38.9841"
      x2="5.75"
      y2="38.9841"
      gradientUnits="userSpaceOnUse"
    >
      <stop stop-color="#F0B71F"></stop>
      <stop offset="1" stop-color="#E03609"></stop>
    </linearGradient>
  </defs>
</svg>
