<svg width="70" height="70" viewBox="0 0 70 70" fill="none" xmlns="http://www.w3.org/2000/svg">
<rect x="0.5" y="0.5" width="69" height="69" rx="15.5" fill="white" stroke="black"/>
<path d="M15.5225 48.405C14.5892 48.405 13.7842 48.09 13.1075 47.46C12.4542 46.8067 12.1275 45.9783 12.1275 44.975C12.1275 43.9717 12.4542 43.1667 13.1075 42.56C13.7842 41.93 14.5892 41.615 15.5225 41.615C16.4792 41.615 17.2842 41.93 17.9375 42.56C18.5908 43.1667 18.9175 43.9717 18.9175 44.975C18.9175 45.9783 18.5908 46.8067 17.9375 47.46C17.2842 48.09 16.4792 48.405 15.5225 48.405Z" fill="#010101"/>
<path d="M20.6189 48.125L31.5389 23.625H37.1389L48.0939 48.125H42.1439L33.1839 26.495H35.4239L26.4289 48.125H20.6189ZM26.0789 42.875L27.5839 38.57H40.1839L41.7239 42.875H26.0789Z" fill="#010101"/>
<path d="M50.3441 48.125V23.625H56.0141V48.125H50.3441Z" fill="#010101"/>
</svg>
