<svg xmlns="http://www.w3.org/2000/svg" width="46" height="46" fill="none" viewBox="0 0 46 46">
  <path fill="url(#a)" d="m37.8 17.058 6.283 6.134-2.748 2.683-6.283-6.133c-.688.383-1.424.703-2.21.958a8.043 8.043 0 0 1-2.503.384c-2.454 0-4.54-.839-6.258-2.516s-2.577-3.714-2.577-6.11c0-2.395.86-4.432 2.577-6.109 1.718-1.677 3.804-2.516 6.258-2.516 2.455 0 4.54.839 6.259 2.516 1.718 1.677 2.577 3.714 2.577 6.11a7.51 7.51 0 0 1-.393 2.443 11.806 11.806 0 0 1-.982 2.156Zm-7.46.192c1.374 0 2.536-.463 3.485-1.39.948-.926 1.423-2.06 1.423-3.401 0-1.342-.474-2.476-1.423-3.403-.95-.926-2.111-1.39-3.486-1.39-1.374 0-2.536.464-3.485 1.39-.949.927-1.423 2.06-1.423 3.403 0 1.341.474 2.475 1.423 3.402.95.926 2.111 1.39 3.485 1.39ZM7.76 42.167a3.83 3.83 0 0 1-2.773-1.126c-.77-.75-1.154-1.653-1.154-2.707V11.5c0-1.054.385-1.956 1.154-2.707A3.83 3.83 0 0 1 7.76 7.667h10.8a9.521 9.521 0 0 0-.736 2.467 16.446 16.446 0 0 0-.197 2.516c0 3.482 1.26 6.39 3.78 8.721 2.52 2.332 5.514 3.498 8.983 3.498.621 0 1.243-.04 1.865-.12.622-.08 1.26-.215 1.914-.407l5.007 4.887v9.105c0 1.054-.385 1.956-1.154 2.707a3.83 3.83 0 0 1-2.773 1.126H7.76Z"/>
  <defs>
    <linearGradient id="a" x1="44.083" x2="3.833" y1="37.531" y2="37.531" gradientUnits="userSpaceOnUse">
      <stop stop-color="#F0B71F"/>
      <stop offset="1" stop-color="#E03609"/>
    </linearGradient>
  </defs>
</svg>
